<?xml version="1.0" encoding="UTF-8"?>
<svg id="Layer_2" data-name="Layer 2" xmlns="http://www.w3.org/2000/svg" viewBox="0 0 363 522.46">
  <defs>
    <style>
      .cls-1 { fill: #1e4a3f; }
      .cls-2 { fill: #c7a35a; }
    </style>
  </defs>
  <g id="Layer_1-2" data-name="Layer 1">
    <g>
      <path class="cls-2" d="M88.25,480.97c-26.97-12.16-54.86-24.73-82.25-36.69l-6-2.62V0l91.88,14.78-2.04,11.74c-.55,3.2.82,5.64,2.07,7.12,2.31,2.74,5.91,4.31,9.87,4.31h34.92l-4.29-24.91h98.2l-4.29,24.91h34.92c3.97,0,7.56-1.57,9.87-4.31,1.25-1.48,2.62-3.92,2.06-7.14l-2.06-11.7L363,0l-.27,441.68-6,2.62c-12.1,5.28-24.41,11.09-36.31,16.7-12.03,5.67-24.47,11.54-36.84,16.94-13.36,5.83-26.72,11.65-40.08,17.48-17.27,7.53-62,27.05-62,27.05,0,0-66.05-29.22-93.25-41.49Z"/>
      <path class="cls-1" d="M55.6,197.7h-4.83v-9.54h4.83c4.73,0,6.85,2.4,6.85,4.77s-2.12,4.77-6.85,4.77ZM282.71,23.07l.31,1.74c2.1,12.17-8.25,23.15-21.79,23.15h-46.79l4.29-24.91h-74.46l4.29,24.91h-46.79c-13.54,0-23.88-10.98-21.79-23.15l.31-1.76L10,11.74v66.46h343V11.74l-70.29,11.33ZM187.72,508.84c30.6-13.36,61.24-26.71,91.86-40.06,24.47-10.68,48.68-22.96,73.15-33.64v-11.32c-8.5.65-17.66.97-28.11.97-73.28,0-105.1-12.38-105.1-66.73v-8.57h58.85v3.71c0,27.45,6,32.31,45.92,32.31,12.85,0,22.08-.61,28.71-2.32v-49.8h-53.54v-48.47h53.54v-46.59c-6.53-1.97-16.01-2.67-29.66-2.67-37.1,0-42.77,4.57-42.77,29.45v3.71h-61.06v-8.57c0-52.06,33.69-65.21,105.1-65.21,10.5,0,19.91.32,28.38,1.01v-32.65h-165.28v345.42ZM10,163.41h165.28v345.42c-55.09-24.03-110.19-49.68-165.28-73.72V163.41ZM157.17,430.55l-14.36,4.57-24.84-7.68-25.33,7.68-24.3-7.68-24.83,7.68c37.31,16.28,76.36,31.89,113.66,48.16v-52.73ZM157.17,313.3h-29.24v24.39l14.88,5.3,14.36-5.3v-24.39ZM119.2,277.27v-28.43h-9.1v33.62l8.1,9.21h7.34l3.08-5.1,3.71,5.1h7.36l6.81-9.29v-33.54h-9.1v28.43c0,3.78-1.21,6.12-2.33,6.12s-2.34-2.34-2.34-6.12v-28.43h-8.86v28.43c0,3.78-1.21,6.12-2.33,6.12s-2.34-2.34-2.34-6.12ZM41.67,222.71h9.1v-16.74h5.6c5.21,0,7.86,2.43,7.86,7.2v9.53h9.09v-15.95l-6.8-5.72,5.03-4.11v-8.45l-8.77-8.59h-21.1v42.82ZM28.11,296.83h64.53v-58.67h64.53v-58.26h-64.53v58.26H28.11v58.67ZM75.47,313.3v24.39l17.17,5.3,17.18-5.3v-24.39h-34.34ZM28.11,337.69l15.4,5.3,13.84-5.3v-24.39h-29.24v24.39ZM28.11,375.27l15.4,4.89,18.86-5.84,5.97-1.84,5.95,1.84,18.35,5.84,19.38-5.84,5.95-1.84,5.96,1.84,18.88,5.85,14.36-4.58v-19.45l-14.36,4.57-24.84-7.69-25.33,7.69-24.3-7.69-24.83,7.69-15.4-4.91v19.46ZM28.11,412.47l15.4,4.9,18.86-5.84,5.97-1.83,5.95,1.83,18.35,5.84,19.38-5.84,5.95-1.83,5.96,1.83,18.88,5.86,14.36-4.59v-19.44l-14.36,4.57-24.84-7.69-25.33,7.69-24.3-7.69-24.83,7.69-15.4-4.91v19.45ZM353,89.51v62.6H10v-62.6h343ZM93.96,116.14c0-7.97-3.54-10.27-11.89-10.27-10.35,0-12.38,3.48-12.38,14.93s2.04,15.01,12.38,15.01c9,0,11.89-2.74,11.89-10.64v-.89h-6.52v.48c0,4.74-.77,5.82-5.54,5.82s-5.42-1.15-5.42-9.63.61-9.86,5.42-9.86,5.54,1.12,5.54,5.41v.48h6.52v-.85h0ZM133.44,106.43h-23.59v5.15h8.4v18.53h-8.4v5.15h23.59v-5.15h-8.4v-18.53h8.4v-5.15ZM173.99,106.43h-8.63l-2.37,8.18-1.26,5.41h-.09l-1.26-5.41-2.37-8.18h-8.72v28.84h5.87v-11.85l-.33-11.75h.09l4.6,16.01h4.19l4.6-16.01h.09l-.33,11.75v11.85h5.91v-28.84h.01ZM215.46,135.27l-9.09-28.84h-9.49l-9.09,28.84h7.01l1.63-5.82h10.31l1.63,5.82h7.09-.01ZM253.31,106.43h-6.81v11.67h-9.82v-11.67h-6.81v28.84h6.81v-11.93h9.82v11.93h6.81v-28.84ZM293.33,106.43h-23.59v5.15h8.4v18.53h-8.4v5.15h23.59v-5.15h-8.4v-18.53h8.4v-5.15ZM201.53,111.29l-3.7,13.22h7.54l-3.75-13.22h-.09Z"/>
    </g>
  </g>
</svg>
